<?xml version="1.0" encoding="utf-8"?>
<!-- Generator: Adobe Illustrator 28.2.0, SVG Export Plug-In . SVG Version: 6.00 Build 0)  -->
<svg version="1.1" id="Layer_1" xmlns="http://www.w3.org/2000/svg" xmlns:xlink="http://www.w3.org/1999/xlink" x="0px" y="0px"
	 viewBox="0 0 48 48" style="enable-background:new 0 0 48 48;" xml:space="preserve">
<style type="text/css">
	.st0{fill:#FFFFFF;}
	.st1{fill:#DA3EB0;}
	.st2{fill:#D83DAF;}
	.st3{fill:#40B3E3;}
	.st4{fill:#40B4E3;}
	.st5{fill:#D83DAE;}
	.st6{fill:#40B2E2;}
	.st7{fill:#40B3E2;}
	.st8{fill:#3FB1E0;}
	.st9{fill:#3BA4D0;}
	.st10{fill:#3CA7D3;}
	.st11{fill:#3AA1CB;}
	.st12{fill:#3CA9D5;}
</style>
<circle class="st0" cx="24" cy="24" r="24"/>
<g>
	<path class="st1" d="M23.79,22.37c0.95,1.98,1.91,3.96,2.87,5.94c0.21,0.42,0.41,0.85,0.62,1.28c0.13-0.06,0.15-0.17,0.19-0.25
		c0.66-1.23,1.32-2.45,1.97-3.68c0.13-0.13,0.23-0.17,0.44-0.24c0.31-0.1,0.66,0.04,0.97,0.18c-0.25,0.42-0.54,0.82-0.85,1.21
		c-0.1,0.08-0.18,0.18-0.23,0.31c-0.05,0.08-0.08,0.17-0.14,0.24c-0.74,1.05-1.48,2.09-2.23,3.14c-1.16-1.37-2.33-2.75-3.49-4.12
		c-0.13-0.15-0.26-0.3-0.43-0.51c-0.26,0.8-1.47,4.19-1.71,4.93c-0.41,0.05-0.48-0.29-0.88-0.37c0.31-1.66,1.26-5.62,1.56-7.28"/>
	<path class="st1" d="M15.88,26.38c0.91-0.13,1.82-0.26,2.75-0.32c0.33,0.72,1.96,3.64,2.29,4.36c-0.63,0.05-1.4,0.15-2.03,0.2
		c-0.18-0.09-1.35-2.53-1.44-2.69c-0.11-0.2-0.21-0.41-0.31-0.62c-0.04-0.07-0.05-0.17-0.15-0.17c-0.09,0-0.11,0.1-0.15,0.17
		c-0.18,0.32-0.36,0.62-0.54,0.94c-0.06,0.11-0.12,0.21-0.23,0.28c-0.43,0.08-0.87,0.12-1.31,0.14c-0.13,0.02-0.26,0.08-0.36-0.05
		c-0.03-0.12,0.03-0.21,0.09-0.31c0.38-0.59,0.79-1.15,1.18-1.73C15.72,26.5,15.78,26.42,15.88,26.38z"/>
	<path class="st1" d="M20.98,30.56c0.05-0.01,0.1-0.02,0.15-0.02c0.34,0.01,0.64-0.07,0.82-0.39c-0.06,0.41-0.23,0.79-0.35,1.18
		c-0.26,0.84-0.53,1.67-0.81,2.5c-0.03,0.09-0.03,0.2-0.15,0.29c-0.61-1.2-1.2-2.39-1.8-3.58c0.61-0.05,1.21-0.07,1.82-0.04
		c0.11,0.03,0.12,0.15,0.18,0.22C20.93,30.7,20.91,30.59,20.98,30.56z"/>
	<path class="st1" d="M13.4,28.85c-0.55-0.36-1.11-0.72-1.66-1.09"/>
	<path class="st1" d="M12.73,27.09c0.42,0.45,0.92,0.82,1.33,1.27c0.1,0.11,0.22,0.17,0.36,0.19c0.04,0.2,0.21,0.09,0.32,0.13"/>
	<path class="st1" d="M28.61,30.35c1.13-1.35,2.69-3.15,3.85-4.41c0.01-0.02,0.03-0.02,0.05-0.02c2.77,0.59,5.54,1.19,8.32,1.78
		c0.1,0.02,0.07,0.17-0.02,0.15c-0.05-0.01-0.12-0.01-0.14,0c0,0-0.01,0-0.01,0c-0.18-0.02-4.85-0.34-7.18-0.66
		c-0.41-0.06-0.73,0-1.07,0.28c-1.07,0.87-2.61,2.12-3.71,2.97c0,0-0.01,0-0.01,0.01c0,0,0,0,0,0
		C28.62,30.47,28.56,30.4,28.61,30.35z"/>
	<path class="st1" d="M31.66,30.07"/>
	<g>
		<path class="st2" d="M11.91,18.65c0.02-0.2,0.03-0.4-0.02-0.61c-0.12,0.03-0.13,0.14-0.16,0.21c-0.5,1.04-1.04,2.05-1.44,3.13
			c-0.04,0.11-0.1,0.16-0.22,0.17c-0.21,0.02-0.42,0.07-0.63,0.1C9.23,21.69,9.17,21.88,9.05,22c-0.17,0.18-0.26,0.18-0.37-0.06
			c-0.07-0.16-0.19-0.14-0.32-0.11c-0.08,0.02-0.18,0.08-0.24,0c-0.05-0.06-0.02-0.17,0.02-0.24c0.09-0.14,0.05-0.21-0.09-0.29
			c-0.14-0.08-0.2-0.25-0.35-0.31c0,0,0,0,0,0c-0.02-0.03-0.03-0.05-0.05-0.08c-0.07-0.13-0.17-0.22-0.29-0.3
			c-0.1-0.13-0.21-0.26-0.31-0.38c-0.01,0.01-0.03,0.02-0.04,0.03c0.11,0.84,0.22,1.67,0.32,2.51c0.16,1.31,0.45,2.6,0.54,3.92
			c0.01,0.1,0.03,0.19-0.05,0.28c-0.53,0.59-0.98,1.23-1.44,1.87c-0.02,0.03-0.05,0.04-0.1,0.09c-0.08-0.39-0.16-0.75-0.23-1.11
			c-0.21-1.13-0.42-2.26-0.64-3.39c-0.31-1.64-0.6-3.28-0.96-4.91c-0.19-0.87-0.3-1.77-0.61-2.61c-0.13-0.36-0.04-0.55,0.31-0.71
			c0.69-0.32,1.38-0.64,2.07-0.96c0.1-0.05,0.17-0.08,0.19,0.07c0.01,0.04,0.05,0.08,0.09,0.12c0.95,0.95,1.79,1.99,2.7,2.98
			c0.05,0.06,0.15,0.28,0.21,0c0.02-0.05,0.04-0.09,0.06-0.14c0.5-1.11,1-2.22,1.51-3.33c0.19-0.4,0.42-0.79,0.6-1.19
			c0.14-0.31,0.34-0.35,0.59-0.41c0.67-0.15,1.34-0.29,2.01-0.45c0.16-0.04,0.18,0,0.19,0.15c0.19,2.29-0.01,4.58-0.02,6.87
			c-0.01,0.87,0.02,1.74-0.03,2.61c-0.01,0.15-0.05,0.23-0.19,0.29c-0.66,0.31-1.31,0.63-1.97,0.95c-0.25,0.12-0.25,0.12-0.25-0.16
			c-0.01-1.42-0.01-2.84-0.02-4.26C11.93,19.1,11.95,18.87,11.91,18.65z"/>
		<path class="st2" d="M38.13,17.79c0.05-0.09,0.09-0.18,0.14-0.28c-0.14-0.04-0.22,0.04-0.31,0.09c-0.73,0.41-1.51,0.73-2.2,1.2
			c-0.08,0.05-0.15,0.05-0.23,0.01c-0.09-0.04-0.19-0.07-0.28-0.11c-0.07-0.06-0.15-0.09-0.24-0.11c-0.2-0.13-0.42-0.11-0.64-0.06
			c-0.16,0.04-0.25-0.01-0.29-0.15c-0.05-0.17-0.17-0.26-0.34-0.31c-0.08-0.03-0.21-0.03-0.22-0.13c-0.01-0.1,0.12-0.12,0.19-0.18
			c-0.12-0.19-0.25-0.38-0.37-0.57c-0.04-0.12-0.11-0.23-0.2-0.33c-0.05-0.14-0.11-0.26-0.24-0.41c-0.15,0.48-0.28,0.92-0.43,1.36
			c-0.29,0.85-0.4,1.74-0.75,2.57c-0.06,0.15-0.13,0.2-0.29,0.19c-0.53-0.04-1.06-0.06-1.6-0.09c-0.2-0.01-0.41-0.01-0.61-0.02
			c-0.06-0.06-0.21,0.01-0.2-0.15c0.09-0.13,0.13-0.27,0.14-0.42c0.24-0.8,0.48-1.6,0.71-2.4c0.2-0.72,0.41-1.43,0.59-2.15
			c0.18-0.74,0.4-1.47,0.45-2.23c0.02-0.23,0.18-0.34,0.42-0.3c0.8,0.15,1.6,0.29,2.39,0.44c0.06,0.01,0.11,0,0.14,0.07
			c0.32,0.6,0.65,1.2,0.97,1.79c0.25,0.45,0.5,0.9,0.74,1.36c0.09,0.17,0.17,0.19,0.3,0.06c0.05-0.03,0.09-0.06,0.14-0.09
			c0.62-0.35,1.24-0.7,1.86-1.04c0.49-0.27,0.98-0.52,1.46-0.79c0.06-0.03,0.12,0,0.17,0.01c0.76,0.22,1.53,0.44,2.29,0.65
			c0.18,0.05,0.13,0.13,0.09,0.26c-0.47,1.51-1.27,2.87-1.86,4.31c-0.24,0.59-0.48,1.19-0.74,1.77c-0.19-0.02-0.37-0.05-0.56-0.07
			c-0.02,0-0.03,0-0.05,0c-0.08-0.03-0.16-0.06-0.26-0.05c-0.02,0-0.03,0-0.05,0c-0.05,0-0.1,0-0.15,0.01
			c-0.49-0.01-0.93-0.24-1.41-0.28c-0.16-0.01-0.11-0.11-0.07-0.2c0.33-0.77,0.66-1.55,1-2.32c0.09-0.2,0.17-0.4,0.26-0.61
			C38.05,18,38.09,17.9,38.13,17.79z"/>
		<path class="st2" d="M26.54,20.49c-0.14-0.02-0.23-0.21-0.4-0.15c-0.25-0.03-0.51-0.07-0.76-0.1c0,0,0.02,0,0.02,0
			c-0.06-0.07-0.14,0-0.2-0.02c0.01-0.11-0.08-0.08-0.13-0.08c-0.3-0.04-0.61-0.07-0.92-0.1c-0.64-0.05-1.29-0.11-1.93-0.16
			c0.01-0.07,0.08-0.08,0.12-0.11c0.42-0.26,0.85-0.5,1.25-0.77c0.47-0.32,0.94-0.5,1.53-0.35c0.49,0.13,0.51,0.07,0.37-0.42
			c-0.21-0.76-0.37-1.53-0.63-2.27c0-0.12-0.02-0.25-0.1-0.35c0-0.13-0.04-0.24-0.09-0.35c-0.11,0.02-0.13,0.1-0.17,0.16
			c-0.87,1.27-1.72,2.55-2.62,3.8c-0.36,0.5-0.65,1.02-0.98,1.53c-0.06,0.09-0.13,0.14-0.24,0.16c-0.7,0.13-1.39,0.28-2.09,0.41
			c-0.08,0.02-0.16,0.03-0.24,0.05c-0.12,0-0.12-0.05-0.07-0.14c0.06-0.12,0.12-0.23,0.18-0.35c0.12-0.17,0.24-0.34,0.31-0.54
			c0.19-0.15,0.27-0.37,0.39-0.56c1.36-2.22,2.72-4.43,4.08-6.65c0.19-0.32,0.41-0.62,0.59-0.94c0.1-0.16,0.2-0.22,0.39-0.16
			c0.22,0.07,0.45,0.1,0.67,0.16c0.49,0.13,0.98,0.19,1.48,0.09c0.18-0.04,0.28,0,0.34,0.21c0.48,1.82,0.92,3.64,1.37,5.46
			c0.12,0.48,0.25,0.96,0.36,1.45c0.04,0.18,0.16,0.33,0.23,0.51c0.13,0.3,0.03,0.45-0.29,0.45c-0.21,0-0.42-0.01-0.64-0.01
			c-0.36,0-0.72-0.06-1.06,0.13C26.63,20.48,26.58,20.49,26.54,20.49z"/>
		<path class="st3" d="M20.78,25.6c0.22,0.18,0.41,0.33,0.6,0.48c0.54,0.44,1.01,0.95,1.48,1.47c0.17,0.18,0.39,0.32,0.54,0.53
			c0.16,0.23,0.14,0.4-0.12,0.52c-0.45,0.22-0.9,0.43-1.36,0.64c-0.1,0.05-0.2,0.1-0.29-0.03c-0.32-0.5-0.83-0.82-1.27-1.19
			c-0.7-0.59-1.47-1.08-2.31-1.47c-0.24-0.11-0.26-0.23-0.1-0.41c0.71-0.81,1.61-1.38,2.43-2.06c0.57-0.47,1.2-0.87,1.73-1.37
			c0.42-0.4,0.9-0.5,1.43-0.56c0.59-0.07,1.19-0.17,1.78-0.24c0.18-0.02,0.33,0.02,0.47,0.18c0.23,0.27,0.54,0.49,0.8,0.74
			c0.62,0.59,1.22,1.2,1.81,1.82c0.08,0.08,0.12,0.17,0.16,0.28c0.08,0.2,0.04,0.32-0.17,0.42c-1.13,0.56-2.23,1.18-3.3,1.84
			c-0.28,0.17-0.56,0.35-0.84,0.53c-0.11,0.08-0.18,0.07-0.27-0.04c-0.22-0.27-0.45-0.53-0.68-0.79c-0.2-0.23-0.18-0.37,0.07-0.53
			c0.71-0.43,1.42-0.85,2.15-1.25c0.06-0.03,0.11-0.07,0.19-0.12c-0.6-0.53-1.18-1.04-1.83-1.47c-0.08-0.05-0.14-0.02-0.21,0.02
			C22.7,24.18,21.76,24.89,20.78,25.6z"/>
		<path class="st3" d="M31.94,26.01c-1.58,1.01-3.18,2.01-4.68,3.14c-0.11,0.08-0.2,0.1-0.32,0.03c-0.34-0.19-0.69-0.36-1.03-0.55
			c-0.17-0.09-0.2-0.28-0.06-0.41c0.67-0.57,1.35-1.13,2.09-1.61c1.1-0.72,2.2-1.44,3.3-2.15c0.11-0.07,0.08-0.12,0.01-0.19
			c-0.55-0.6-1.12-1.18-1.72-1.73c-0.18-0.17-0.31-0.4-0.53-0.54c-0.08-0.05-0.05-0.18-0.03-0.26c0.03-0.1,0.12-0.07,0.2-0.07
			c0.44,0,0.88,0,1.32,0c0,0.01,0,0.02,0,0.04c0.47,0,0.93,0,1.4,0c0.14,0,0.25,0.07,0.36,0.15c0.44,0.31,0.77,0.72,1.09,1.15
			c0.09,0.13,0.17,0.09,0.28,0.03c0.6-0.32,1.21-0.64,1.81-0.96c0.12-0.07,0.24-0.09,0.38-0.07c0.78,0.1,1.56,0.18,2.34,0.27
			c0.1,0.01,0.24-0.02,0.26,0.13c0.03,0.15-0.02,0.25-0.17,0.32c-0.79,0.35-1.57,0.71-2.34,1.1c-0.44,0.23-0.9,0.42-1.34,0.67"/>
		<path class="st3" d="M14.67,28.9c-0.69-0.09-1.32-0.14-1.95-0.13c-0.15,0-0.19,0.04-0.16,0.19c0.1,0.6,0.2,1.2,0.29,1.8
			c0.02,0.1,0.03,0.2,0.04,0.3c0.01,0.12-0.01,0.2-0.15,0.24c-0.48,0.16-0.96,0.32-1.44,0.5c-0.14,0.05-0.23,0.03-0.27-0.12
			c-0.23-0.99-0.57-1.94-0.91-2.9c-0.16-0.45-0.31-0.91-0.47-1.36c-0.08-0.23-0.03-0.38,0.21-0.51c0.65-0.35,1.29-0.74,1.94-1.11
			c0.07-0.04,0.15-0.14,0.24-0.02c0.03,0.04,0.07,0.02,0.09,0c0.32-0.35,0.76-0.25,1.14-0.28c1.19-0.1,2.39-0.12,3.58-0.12
			c0.22,0,0.31,0.06,0.28,0.29c-0.02,0.18-0.06,0.38-0.03,0.56c0.07,0.48-0.14,0.76-0.56,0.93c-0.17,0.07-0.31,0.19-0.52,0.31
			c0.31,0.06,0.57,0.11,0.82,0.15c0.15,0.02,0.2,0.09,0.19,0.23c-0.01,0.27,0,0.54,0,0.81c0,0.15-0.06,0.25-0.19,0.33
			c-0.82,0.53-1.63,1.07-2.44,1.61c-0.12,0.08-0.22,0.1-0.35,0.06c-0.28-0.08-0.56-0.14-0.83-0.22c-0.1-0.03-0.25-0.01-0.26-0.18
			c-0.01-0.15,0.05-0.23,0.17-0.31c0.45-0.29,0.89-0.59,1.33-0.89C14.51,29.01,14.56,28.97,14.67,28.9z M12.43,28.35
			c0.57-0.47,1.09-0.91,1.67-1.39c-0.64,0.01-1.21,0.08-1.78,0.15c-0.1,0.01-0.12,0.06-0.1,0.16
			C12.29,27.61,12.35,27.96,12.43,28.35z"/>
		<path class="st4" d="M38.5,24.99c0.46,0.54,0.88,1.11,1.3,1.67c0.05,0.07,0.09,0.13,0.12,0.22c0.09,0.37,0.08,0.39-0.28,0.53
			c-1.29,0.53-2.55,1.14-3.81,1.74c-0.48,0.23-0.95,0.48-1.41,0.76c-0.16,0.1-0.29,0.12-0.46,0.01c-0.31-0.19-0.64-0.35-0.96-0.52
			c-0.1-0.05-0.17-0.11-0.17-0.25c0-0.13,0.08-0.17,0.17-0.22c1.19-0.63,2.3-1.38,3.54-1.92c0.14-0.06,0.13-0.11,0.05-0.22
			c-0.43-0.56-0.88-1.1-1.36-1.61c-0.18-0.19-0.16-0.28,0.03-0.43c0.55-0.45,1.2-0.7,1.83-1.01c0.89-0.44,1.81-0.83,2.7-1.28
			c0.32-0.16,0.61-0.07,0.91-0.02c0.65,0.1,1.3,0.22,1.94,0.34c0.1,0.02,0.24-0.02,0.26,0.16c0.02,0.19-0.08,0.25-0.23,0.3
			c-1.35,0.52-2.69,1.07-4.01,1.66C38.62,24.93,38.57,24.96,38.5,24.99z"/>
		<path class="st5" d="M15.81,18.63c0.06-1.25,0.12-2.28,0.16-3.31c0.03-0.88,0.11-1.75,0.1-2.63c0-0.13,0.01-0.22,0.18-0.24
			c0.82-0.09,1.65-0.19,2.47-0.29c0.13-0.02,0.14,0.04,0.17,0.15c0.06,0.22-0.05,0.41-0.07,0.62c-0.23,2.52-0.46,5.04-0.7,7.56
			c0,0.05,0,0.1,0,0.15c0,0.72-0.07,0.81-0.75,1.01c-0.53,0.16-1.07,0.33-1.59,0.52c-0.19,0.06-0.21,0.02-0.2-0.16
			C15.67,20.82,15.75,19.62,15.81,18.63z"/>
		<path class="st2" d="M42.66,22.37c-0.58-0.07-1.14-0.22-1.7-0.37c-0.37-0.1-0.37-0.09-0.2-0.43c0.66-1.31,1.31-2.62,1.97-3.92
			c0.28-0.55,0.56-1.1,0.83-1.65c0.07-0.13,0.12-0.19,0.28-0.13c0.74,0.26,1.49,0.5,2.23,0.76c0.23,0.08,0.27,0.23,0.1,0.4
			c-0.07,0.07-0.12,0.14-0.16,0.22c-0.88,1.38-1.6,2.86-2.4,4.28c-0.15,0.26-0.25,0.54-0.43,0.78c-0.05,0.07-0.1,0.14-0.2,0.13
			C42.88,22.4,42.77,22.39,42.66,22.37z"/>
		<path class="st6" d="M25.21,29.49c1.5,0.06,3,0.14,4.49,0.25c0.42,0.03,0.84,0.1,1.26,0.15c0.07,0.01,0.14,0.01,0.16,0.1
			c0.02,0.09-0.04,0.13-0.12,0.17c-0.51,0.21-1.01,0.42-1.52,0.63c-0.06,0.02-0.13,0.02-0.2,0.01c-0.62-0.06-1.25-0.09-1.87-0.19
			c-0.39-0.06-0.58,0.17-0.75,0.43c-0.7,1.05-1.4,2.1-2.08,3.16c-0.11,0.17-0.23,0.24-0.43,0.22c-0.25-0.02-0.51-0.01-0.76-0.02
			c-0.3-0.01-0.34-0.08-0.2-0.33c0.34-0.63,0.69-1.25,1.02-1.87c0.27-0.51,0.51-1.03,0.83-1.51c0.08-0.12,0.04-0.18-0.11-0.17
			c-0.58,0.02-1.15,0.02-1.73,0.05c-0.23,0.01-0.24-0.09-0.18-0.26c0-0.01,0.01-0.02,0.01-0.02c0.26-0.76,0.27-0.77,1.1-0.78
			C24.48,29.49,24.85,29.49,25.21,29.49z"/>
		<path class="st6" d="M16.28,33.19c0.11,0.11,0.21,0.1,0.3,0.11c0.1,0.02,0.22,0.02,0.29,0.08c0.13,0.1,0.04,0.78-0.1,0.87
			c-0.5,0.34-1.01,0.68-1.52,1.02c-0.07,0.05-0.13,0.07-0.21,0.04c-0.19-0.06-0.38-0.1-0.56-0.16c-0.06-0.02-0.14-0.03-0.15-0.11
			c-0.02-0.09,0.02-0.14,0.09-0.19c0.22-0.15,0.43-0.3,0.65-0.45c0.1-0.07,0.2-0.13,0.33-0.22c-0.43-0.09-0.83-0.09-1.23-0.09
			c-0.13,0-0.09,0.09-0.08,0.16c0.06,0.38,0.11,0.77,0.19,1.15c0.04,0.2-0.01,0.31-0.22,0.37c-0.24,0.06-0.47,0.15-0.69,0.24
			c-0.14,0.06-0.22,0.06-0.27-0.13c-0.22-0.85-0.52-1.68-0.82-2.5c-0.12-0.34-0.11-0.4,0.2-0.59c0.3-0.18,0.6-0.35,0.9-0.52
			c0.48-0.28,1.01-0.31,1.54-0.33c0.61-0.03,1.22-0.03,1.83-0.05c0.18-0.01,0.22,0.06,0.23,0.24
			C17.01,32.65,16.87,33.05,16.28,33.19z M15.01,32.95c-0.36-0.03-0.64,0.04-0.93,0.04c-0.22,0-0.29,0.07-0.21,0.29
			c0.04,0.12,0.04,0.25,0.06,0.37c0.02,0.09,0.06,0.15,0.15,0.07C14.38,33.48,14.68,33.23,15.01,32.95z"/>
		<path class="st7" d="M30.97,31.62c0.27,0.37,0.52,0.71,0.77,1.06c0.2,0.29,0.16,0.4-0.16,0.54c-1.11,0.5-2.23,0.98-3.28,1.6
			c-0.1,0.06-0.19,0.08-0.3,0.01c-0.18-0.12-0.39-0.21-0.58-0.32c-0.19-0.11-0.19-0.22,0-0.32c0.73-0.4,1.43-0.87,2.2-1.21
			c0.13-0.06,0.15-0.1,0.06-0.21c-0.26-0.32-0.52-0.65-0.78-0.97c-0.11-0.13-0.16-0.21,0.02-0.34c0.38-0.29,0.82-0.45,1.24-0.67
			c0.52-0.27,1.07-0.5,1.6-0.77c0.17-0.09,0.34-0.09,0.51-0.06c0.45,0.08,0.9,0.16,1.35,0.24c0.08,0.01,0.17,0,0.18,0.12
			c0.01,0.11-0.05,0.15-0.14,0.18c-0.35,0.14-0.71,0.27-1.06,0.42C32.06,31.15,31.52,31.39,30.97,31.62z"/>
		<path class="st6" d="M17.5,31.03c0.01-0.42,0.01-0.42,0.41-0.52c1.35-0.33,2.71-0.6,4.08-0.85c0.28-0.05,0.57-0.04,0.86-0.07
			c0.17-0.01,0.2,0.08,0.13,0.2c-0.15,0.25-0.31,0.5-0.48,0.75c-0.08,0.12-0.22,0.1-0.32,0.11c-1.48,0.09-2.92,0.43-4.36,0.78
			c-0.32,0.08-0.32,0.13-0.32-0.26C17.5,31.12,17.5,31.08,17.5,31.03z"/>
		<path class="st8" d="M20.55,34.41c-1.07,0.04-2.08,0.2-3.08,0.4c-0.24,0.05-0.29-0.03-0.26-0.23c0.02-0.17,0.03-0.34,0.04-0.51
			c0.01-0.11,0.06-0.14,0.16-0.16c0.97-0.18,1.95-0.32,2.92-0.46c0.35-0.05,0.71-0.04,1.06-0.09c0.21-0.03,0.22,0.08,0.15,0.22
			c-0.13,0.24-0.28,0.48-0.43,0.72c-0.07,0.11-0.19,0.1-0.3,0.11C20.71,34.42,20.6,34.41,20.55,34.41z"/>
		<path class="st9" d="M14.65,21.64c-0.04-2.55,0.19-5.09,0.13-7.64c-0.01-0.24-0.13-0.47-0.09-0.72c0.02-0.12,0.04-0.19,0.17-0.2
			c0.17-0.01,0.1,0.12,0.11,0.2c0.2,2.34-0.02,4.68-0.02,7.02c0,0.8,0,1.61-0.02,2.41c-0.01,0.19-0.08,0.28-0.25,0.36
			c-0.66,0.31-1.31,0.63-1.97,0.95c-0.06,0.03-0.14,0.13-0.19,0.03c-0.05-0.09-0.01-0.19,0.11-0.24c0.6-0.29,1.2-0.59,1.81-0.87
			c0.15-0.07,0.22-0.15,0.22-0.32C14.64,22.28,14.65,21.96,14.65,21.64z"/>
		<path class="st8" d="M17.43,33.17c-0.1,0.02-0.09-0.07-0.08-0.12c0.07-0.26,0.14-0.52,0.23-0.78c0.04-0.13,0.18-0.11,0.28-0.13
			c0.89-0.16,1.77-0.37,2.66-0.49c0.04-0.01,0.08-0.02,0.13-0.02c0.07,0.01,0.16-0.05,0.21,0.04c0.03,0.07-0.01,0.15-0.05,0.21
			c-0.15,0.21-0.3,0.43-0.46,0.64c-0.04,0.06-0.09,0.11-0.18,0.13c-0.9,0.15-1.8,0.3-2.69,0.51C17.46,33.16,17.46,33.16,17.43,33.17
			z"/>
		<path class="st9" d="M18.75,20.33c-0.07,0.2-0.19,0.37-0.31,0.54c-0.01-0.63,0.09-1.25,0.14-1.87c0.12-1.5,0.23-3.01,0.4-4.5
			c0.07-0.6,0.06-1.21,0.23-1.8c0.02-0.06,0-0.13,0-0.2c-0.01-0.08,0.02-0.13,0.11-0.14c0.1-0.01,0.14,0.02,0.15,0.12
			c0.01,0.09,0.04,0.19,0.02,0.28c-0.23,1.39-0.31,2.8-0.44,4.21C18.95,18.09,18.85,19.21,18.75,20.33z"/>
		<path class="st9" d="M7.37,20.62c0.12,0.08,0.22,0.17,0.29,0.3c0.01,0.03,0.04,0.36,0.05,0.5c0.11,0.92,0.19,1.84,0.36,2.74
			c0.17,0.89,0.26,1.79,0.38,2.69c0.02,0.16-0.01,0.29-0.12,0.41c-0.47,0.52-0.87,1.1-1.29,1.67c-0.05,0.07-0.08,0.15-0.18,0.2
			c-0.08-0.17-0.09-0.31,0.03-0.48c0.38-0.52,0.77-1.03,1.19-1.52c0.08-0.1,0.11-0.19,0.1-0.32c-0.09-1.18-0.33-2.34-0.49-3.52
			C7.58,22.4,7.44,21.51,7.37,20.62z"/>
		<path class="st10" d="M24.86,15.94c-0.77,1.11-1.54,2.22-2.29,3.34c-0.14,0.2-0.35,0.34-0.43,0.59c-0.21,0.34-0.43,0.69-0.64,1.04
			c-0.07,0.12-0.14,0.19-0.29,0.21c-0.78,0.15-1.56,0.31-2.34,0.46c-0.03,0.01-0.06,0-0.1,0c0.01-0.16,0.12-0.17,0.23-0.19
			c0.65-0.13,1.29-0.26,1.94-0.38c0.13-0.02,0.21-0.07,0.27-0.19c0.12-0.22,0.24-0.43,0.38-0.63c0.88-1.29,1.76-2.58,2.65-3.87
			c0.17-0.24,0.34-0.48,0.51-0.72C24.84,15.7,24.86,15.82,24.86,15.94z"/>
		<path class="st11" d="M29.02,20.13c-0.23-0.41-0.34-0.86-0.45-1.31c-0.42-1.73-0.87-3.45-1.31-5.17c-0.09-0.33-0.1-0.69-0.25-1.01
			c-0.03-0.06-0.07-0.15,0.05-0.18c0.11-0.02,0.14,0.04,0.17,0.13c0.19,0.45,0.23,0.93,0.36,1.4c0.38,1.39,0.69,2.79,1.05,4.19
			c0.12,0.47,0.25,0.93,0.35,1.4c0.02,0.1,0.08,0.2,0.12,0.3C29.06,19.96,29.11,20.07,29.02,20.13z"/>
		<path class="st12" d="M39.48,21.78c0.15-0.05,0.19-0.14,0.23-0.23c0.72-1.83,1.59-3.58,2.37-5.38c0.07-0.17,0.04-0.36,0.14-0.53
			c0.07-0.1,0.1-0.15,0.23-0.11c0.17,0.06,0.06,0.14,0.04,0.22c-0.46,1.48-1.24,2.83-1.84,4.25c-0.22,0.51-0.4,1.04-0.63,1.55
			C39.87,21.88,39.88,21.88,39.48,21.78z"/>
		<path class="st12" d="M43.53,22.62c-0.03-0.02-0.2,0.05-0.1-0.12c0.58-1.05,1.16-2.1,1.74-3.15c0.2-0.36,0.37-0.75,0.6-1.09
			c0.26-0.38,0.44-0.81,0.75-1.15c0.04-0.04,0.04-0.11,0.06-0.16c0.02-0.08,0.05-0.13,0.14-0.09c0.07,0.03,0.16,0.03,0.14,0.16
			c-0.02,0.16-0.15,0.24-0.22,0.36c-0.38,0.64-0.78,1.26-1.13,1.92c-0.48,0.91-0.99,1.81-1.48,2.72c-0.1,0.18-0.17,0.37-0.3,0.53
			C43.69,22.6,43.65,22.65,43.53,22.62z"/>
		<path class="st9" d="M11.91,18.65c0.04,0.23,0.02,0.46,0.01,0.68c-0.25,0.36-0.41,0.77-0.6,1.17c-0.16,0.34-0.3,0.7-0.43,1.06
			c-0.05,0.13-0.12,0.2-0.27,0.22c-0.19,0.01-0.38,0.07-0.57,0.1c-0.21,0.03-0.28,0.23-0.41,0.35c-0.06,0.05-0.09,0.22-0.23,0.1
			c-0.12-0.1-0.04-0.18,0.02-0.28c0.2-0.34,0.55-0.32,0.87-0.37c0.19-0.03,0.28-0.09,0.34-0.27C10.98,20.45,11.44,19.55,11.91,18.65
			z"/>
		<path class="st10" d="M31.22,20.65c0.03,0,0.07,0,0.1,0c0.66,0.03,0.67,0.04,0.88-0.58c0.32-0.97,0.51-1.98,0.85-2.94
			c0.03-0.09,0.06-0.17,0.1-0.26c0.09,0.09,0.16,0.2,0.2,0.33c-0.22,0.68-0.47,1.35-0.6,2.05c-0.09,0.5-0.28,0.97-0.46,1.44
			c-0.04,0.11-0.11,0.11-0.2,0.1c-0.29-0.02-0.57-0.04-0.86-0.06C31.21,20.71,31.22,20.68,31.22,20.65z"/>
		<path class="st11" d="M36.02,16.46c-0.05,0.03-0.09,0.06-0.14,0.09c-0.38-0.68-0.75-1.36-1.13-2.04
			c-0.19-0.34-0.38-0.67-0.57-1.01c0.24-0.1,0.26,0.08,0.33,0.21c0.34,0.61,0.68,1.22,1.02,1.83C35.7,15.85,35.86,16.16,36.02,16.46
			z"/>
		<path class="st11" d="M9.49,18.27c-0.02,0.05-0.04,0.09-0.06,0.14c-0.59-0.65-1.17-1.31-1.76-1.96c-0.26-0.28-0.48-0.61-0.78-0.85
			c-0.04-0.03-0.11-0.07-0.07-0.14c0.02-0.02,0.05-0.04,0.08-0.05c0.09-0.02,0.08,0.06,0.1,0.11c0.02,0.04,0.05,0.09,0.09,0.12
			c0.82,0.81,1.55,1.71,2.33,2.56C9.44,18.23,9.46,18.25,9.49,18.27z"/>
		<path class="st9" d="M18.34,21.37c0.08-0.02,0.16-0.03,0.24-0.05c0,0.01-0.01,0.02-0.01,0.02c0.11,0.38-0.19,0.39-0.42,0.47
			c-0.6,0.19-1.2,0.39-1.81,0.58c-0.06,0.02-0.15,0.1-0.18-0.02c-0.03-0.09,0.05-0.13,0.13-0.15c0.6-0.19,1.2-0.39,1.81-0.57
			C18.25,21.59,18.34,21.53,18.34,21.37z"/>
		<path class="st12" d="M38.13,17.79C38.09,17.9,38.05,18,38,18.11c-0.55,0.27-1.11,0.54-1.63,0.87c-0.13,0.08-0.24,0.1-0.38-0.03
			C36.68,18.51,37.41,18.15,38.13,17.79z"/>
		<path class="st9" d="M26.54,20.49c0.04-0.01,0.09-0.02,0.13-0.02c0.2,0,0.51,0,0.51,0s0.3,0,0.51-0.03c0.36-0.06,0.72,0,1.08,0.01
			c0.1,0,0.19,0.01,0.22-0.11c0.01,0,0.03,0,0.04,0l0,0c-0.01,0.16,0.14,0.08,0.2,0.15c-0.03,0.1-0.11,0.08-0.19,0.08
			c-0.4-0.01-0.81-0.01-1.21-0.02c-0.16,0-0.42,0.1-0.47,0.11c-0.03,0.01-0.05,0.01-0.09,0.01C27.24,20.67,26.78,20.56,26.54,20.49z
			"/>
		<path class="st9" d="M25.19,20.22c0.07,0.03,0.14-0.05,0.2,0.02c0,0.08-0.06,0.07-0.11,0.06c-0.83-0.08-1.66-0.15-2.48-0.25
			c0.45-0.06,0.89,0.03,1.34,0.04C24.49,20.13,24.84,20.18,25.19,20.22z"/>
		<path class="st11" d="M31.22,20.65c0,0.03,0,0.05,0,0.08c-0.54-0.02-1.07-0.05-1.63-0.07c0.07-0.15,0.18-0.07,0.26-0.1
			C30.3,20.59,30.76,20.62,31.22,20.65z"/>
		<path class="st11" d="M35,18.59c0.09,0.02,0.17,0.05,0.24,0.11c-0.12,0.02-0.25,0.04-0.37,0.06c-0.06,0.01-0.15,0.02-0.16-0.07
			c0-0.08,0.09-0.06,0.14-0.07C34.9,18.6,34.95,18.6,35,18.59z"/>
		<path class="st11" d="M25.38,20.24c0.25,0.03,0.51,0.07,0.76,0.1c0,0.03,0.11,0.09,0.03,0.08c-0.27-0.03-0.54-0.05-0.8-0.14
			C25.37,20.29,25.37,20.26,25.38,20.24z"/>
		<path class="st11" d="M42.66,22.37c0.11,0.02,0.21,0.04,0.32,0.06c0.06,0.03,0.12,0.05,0.18,0.08
			C42.99,22.47,42.8,22.53,42.66,22.37z"/>
		<path class="st9" d="M29.02,20.13c0.09-0.06,0.04-0.18,0.1-0.25c0.02,0.01,0.03,0.02,0.05,0.02c-0.02,0.15-0.05,0.3-0.14,0.42
			c0,0,0,0,0,0c0-0.04,0-0.08,0-0.12C29.02,20.18,29.02,20.16,29.02,20.13z"/>
		<path class="st11" d="M29.02,20.21c0,0.04,0,0.08,0,0.12c-0.01,0-0.03,0-0.04,0C28.97,20.29,28.99,20.25,29.02,20.21z"/>
		<path class="st5" d="M12.43,28.35c-0.07-0.39-0.14-0.73-0.21-1.08c-0.02-0.09,0-0.15,0.1-0.16c0.57-0.07,1.14-0.14,1.78-0.15
			C13.52,27.44,12.99,27.87,12.43,28.35z"/>
		<path class="st5" d="M15.01,32.95c-0.33,0.28-0.63,0.53-0.92,0.78c-0.09,0.08-0.14,0.02-0.15-0.07c-0.02-0.12-0.02-0.26-0.06-0.37
			c-0.07-0.21,0-0.29,0.21-0.29C14.37,32.99,14.65,32.92,15.01,32.95z"/>
	</g>
</g>
</svg>
